<?xml version="1.0" encoding="utf-8" standalone="no"?><!DOCTYPE svg PUBLIC "-//W3C//DTD SVG 20010904//EN" "http://www.w3.org/TR/2001/REC-SVG-20010904/DTD/svg10.dtd"><svg xmlns="http://www.w3.org/2000/svg" width="882" height="277" xmlns:xlink="http://www.w3.org/1999/xlink"><source><![CDATA[	APIGateway->LambdaHandler: aLambdaHandler(event, context, callback)
	LambdaHandler->InnerBusinessService: someBusinessHandler(... bizParams)
	InnerBusinessService-->LambdaHandler: 
	LambdaHandler-->APIGateway : callback(err, res)]]></source><desc></desc><defs><marker viewBox="0 0 5 5" markerWidth="5" markerHeight="5" orient="auto" refX="5" refY="2.5" id="markerArrowBlock"><path d="M 0 0 L 5 2.5 L 0 5 z"></path></marker><marker viewBox="0 0 9.6 16" markerWidth="4" markerHeight="16" orient="auto" refX="9.6" refY="8" id="markerArrowOpen"><path d="M 9.6,8 1.92,16 0,13.7 5.76,8 0,2.286 1.92,0 9.6,8 z"></path></marker></defs><g class="title"></g><g class="actor"><path d="M10,20C104.9,25.0 78.4,15.0 134.9,20.0C136.6,31.6 133.2,26.7 134.9,62.0C94.6,67.0 103.2,57.0 10.0,62.0C8.3,38.9 11.7,51.9 10.0,20.0" stroke="#000000" fill="#ffffff" style="stroke-width: 2;"></path><text x="21" y="44" style="font-size: 16px; font-family: danielbd;"><tspan x="20">APIGateway</tspan></text></g><g class="actor"><path d="M10,215C30.0,220.0 114.9,210.0 134.9,215.0C136.6,239.9 133.2,246.9 134.9,257.0C112.1,262.0 45.7,252.0 10.0,257.0C8.3,221.7 11.7,238.3 10.0,215.0" stroke="#000000" fill="#ffffff" style="stroke-width: 2;"></path><text x="21" y="239" style="font-size: 16px; font-family: danielbd;"><tspan x="20">APIGateway</tspan></text></g><path d="M72.5,62.0C78.6,190.5 66.3,144.2 72.5,215.0" stroke="#000000" fill="none" style="stroke-width: 2;"></path><g class="actor"><path d="M363.265625,20C494.0,13.7 468.2,26.3 520.1,20.0C521.7,29.4 518.4,35.5 520.1,62.0C495.0,68.3 450.2,55.7 363.3,62.0C361.6,39.6 364.9,41.2 363.3,20.0" stroke="#000000" fill="#ffffff" style="stroke-width: 2;"></path><text x="373.265625" y="46.5" style="font-size: 16px; font-family: danielbd;"><tspan x="373.265625">LambdaHandler</tspan></text></g><g class="actor"><path d="M363.265625,215C467.4,221.3 447.6,208.7 520.1,215.0C518.4,231.4 521.7,246.8 520.1,257.0C475.7,250.7 417.5,263.3 363.3,257.0C364.9,225.1 361.6,230.6 363.3,215.0" stroke="#000000" fill="#ffffff" style="stroke-width: 2;"></path><text x="373.265625" y="241.5" style="font-size: 16px; font-family: danielbd;"><tspan x="373.265625">LambdaHandler</tspan></text></g><path d="M441.7,62.0C435.5,98.7 447.8,178.3 441.7,215.0" stroke="#000000" fill="none" style="stroke-width: 2;"></path><g class="actor"><path d="M662.5390625,20C721.0,27.6 693.0,12.4 852.8,20.0C854.4,26.7 851.1,53.5 852.8,62.0C800.6,69.6 770.7,54.4 662.5,62.0C664.2,30.2 660.9,55.3 662.5,20.0" stroke="#000000" fill="#ffffff" style="stroke-width: 2;"></path><text x="672.5390625" y="46.5" style="font-size: 16px; font-family: danielbd;"><tspan x="672.5390625">InnerBusinessService</tspan></text></g><g class="actor"><path d="M662.5390625,215C721.1,222.6 702.5,207.4 852.8,215.0C854.4,221.7 851.1,249.0 852.8,257.0C807.1,249.4 822.3,264.6 662.5,257.0C660.9,229.8 664.2,246.9 662.5,215.0" stroke="#000000" fill="#ffffff" style="stroke-width: 2;"></path><text x="672.5390625" y="241.5" style="font-size: 16px; font-family: danielbd;"><tspan x="672.5390625">InnerBusinessService</tspan></text></g><path d="M757.6,62.0C751.5,134.0 763.8,114.5 757.6,215.0" stroke="#000000" fill="none" style="stroke-width: 2;"></path><g class="signal"><text x="82.4609375" y="92" style="font-size: 16px; font-family: danielbd;"><tspan x="82.4609375">aLambdaHandler(event, context, callback)</tspan></text><path d="M72.5,100.0C195.3,114.8 347.7,85.2 441.7,100.0" stroke="#000000" fill="none" style="stroke-width: 2; marker-end: url(&quot;#markerArrowBlock&quot;);"></path></g><g class="signal"><text x="451.6640625" y="130.5" style="font-size: 16px; font-family: danielbd;"><tspan x="451.6640625">someBusinessHandler(... bizParams)</tspan></text><path d="M441.7,137.0C517.5,149.6 507.5,124.4 757.6,137.0" stroke="#000000" fill="none" style="stroke-width: 2; marker-end: url(&quot;#markerArrowBlock&quot;);"></path></g><g class="signal"><text x="599.65625" y="162" style="font-size: 16px; font-family: danielbd;"><tspan x="599.65625"></tspan></text><path d="M757.6,157.0C503.6,144.4 624.8,169.6 441.7,157.0" stroke="#000000" fill="none" style="stroke-width: 2; stroke-dasharray: 6, 2; marker-end: url(&quot;#markerArrowBlock&quot;);"></path></g><g class="signal"><text x="185.59375" y="187" style="font-size: 16px; font-family: danielbd;"><tspan x="185.59375">callback(err, res)</tspan></text><path d="M441.7,195.0C202.9,209.8 131.5,180.2 72.5,195.0" stroke="#000000" fill="none" style="stroke-width: 2; stroke-dasharray: 6, 2; marker-end: url(&quot;#markerArrowBlock&quot;);"></path></g></svg>