<?xml version="1.0" encoding="utf-8" standalone="no"?><!DOCTYPE svg PUBLIC "-//W3C//DTD SVG 20010904//EN" "http://www.w3.org/TR/2001/REC-SVG-20010904/DTD/svg10.dtd"><svg xmlns="http://www.w3.org/2000/svg" width="745" height="228" xmlns:xlink="http://www.w3.org/1999/xlink"><source><![CDATA[
SomeLambda -> SomeBusinessService: someBusinessHandler(... bizParams)
SomeBusinessService -> SomeInnerLambda: HTTP/SNS/Kinesis event
SomeBusinessService --> SomeLambda: ]]></source><desc></desc><defs><marker viewBox="0 0 5 5" markerWidth="5" markerHeight="5" orient="auto" refX="5" refY="2.5" id="markerArrowBlock"><path d="M 0 0 L 5 2.5 L 0 5 z"></path></marker><marker viewBox="0 0 9.6 16" markerWidth="4" markerHeight="16" orient="auto" refX="9.6" refY="8" id="markerArrowOpen"><path d="M 9.6,8 1.92,16 0,13.7 5.76,8 0,2.286 1.92,0 9.6,8 z"></path></marker></defs><g class="title"></g><g class="actor"><path d="M10,20C65.9,14.6 113.3,25.4 145.9,20.0C144.4,32.4 147.4,32.1 145.9,57.0C61.8,62.4 81.7,51.6 10.0,57.0C11.5,45.2 8.5,46.7 10.0,20.0" stroke="#000000" fill="#ffffff" style="stroke-width: 2;"></path><text x="21" y="44" style="font-size: 16px; font-family: danielbd;"><tspan x="20">SomeLambda</tspan></text></g><g class="actor"><path d="M10,171C69.9,165.6 52.9,176.4 145.9,171.0C147.4,188.1 144.4,189.5 145.9,208.0C108.7,202.6 113.3,213.4 10.0,208.0C8.5,184.4 11.5,192.8 10.0,171.0" stroke="#000000" fill="#ffffff" style="stroke-width: 2;"></path><text x="21" y="195" style="font-size: 16px; font-family: danielbd;"><tspan x="20">SomeLambda</tspan></text></g><path d="M78.0,57.0C73.4,84.4 82.5,133.0 78.0,171.0" stroke="#000000" fill="none" style="stroke-width: 2;"></path><g class="actor"><path d="M295.625,20C327.1,12.1 460.8,27.9 492.3,20.0C493.7,26.4 490.8,31.7 492.3,57.0C338.8,49.1 455.3,64.9 295.6,57.0C297.1,42.1 294.1,25.9 295.6,20.0" stroke="#000000" fill="#ffffff" style="stroke-width: 2;"></path><text x="306.625" y="44" style="font-size: 16px; font-family: danielbd;"><tspan x="305.625">SomeBusinessService</tspan></text></g><g class="actor"><path d="M295.625,171C460.8,163.1 345.2,178.9 492.3,171.0C493.7,179.9 490.8,194.1 492.3,208.0C400.2,200.1 399.2,215.9 295.6,208.0C297.1,189.1 294.1,180.2 295.6,171.0" stroke="#000000" fill="#ffffff" style="stroke-width: 2;"></path><text x="306.625" y="195" style="font-size: 16px; font-family: danielbd;"><tspan x="305.625">SomeBusinessService</tspan></text></g><path d="M393.9,57.0C398.5,92.0 389.4,128.3 393.9,171.0" stroke="#000000" fill="none" style="stroke-width: 2;"></path><g class="actor"><path d="M540.2421875,20C687.3,27.0 673.2,13.0 715.3,20.0C713.9,25.9 716.8,28.9 715.3,57.0C592.6,50.0 582.3,64.0 540.2,57.0C538.8,40.3 541.7,42.0 540.2,20.0" stroke="#000000" fill="#ffffff" style="stroke-width: 2;"></path><text x="551.2421875" y="44" style="font-size: 16px; font-family: danielbd;"><tspan x="550.2421875">SomeInnerLambda</tspan></text></g><g class="actor"><path d="M540.2421875,171C568.3,164.0 645.9,178.0 715.3,171.0C716.8,202.1 713.9,181.3 715.3,208.0C673.3,215.0 687.3,201.0 540.2,208.0C541.7,176.9 538.8,179.9 540.2,171.0" stroke="#000000" fill="#ffffff" style="stroke-width: 2;"></path><text x="551.2421875" y="195" style="font-size: 16px; font-family: danielbd;"><tspan x="550.2421875">SomeInnerLambda</tspan></text></g><path d="M627.8,57.0C623.2,120.7 632.3,84.4 627.8,171.0" stroke="#000000" fill="none" style="stroke-width: 2;"></path><g class="signal"><text x="87.9609375" y="87.5" style="font-size: 16px; font-family: danielbd;"><tspan x="87.9609375">someBusinessHandler(... bizParams)</tspan></text><path d="M78.0,94.0C280.2,81.4 265.9,106.6 393.9,94.0" stroke="#000000" fill="none" style="stroke-width: 2; marker-end: url(&quot;#markerArrowBlock&quot;);"></path></g><g class="signal"><text x="403.9453125" y="124.5" style="font-size: 16px; font-family: danielbd;"><tspan x="403.9453125">HTTP/SNS/Kinesis event</tspan></text><path d="M393.9,131.0C568.0,121.6 523.6,140.4 627.8,131.0" stroke="#000000" fill="none" style="stroke-width: 2; marker-end: url(&quot;#markerArrowBlock&quot;);"></path></g><g class="signal"><text x="235.953125" y="156" style="font-size: 16px; font-family: danielbd;"><tspan x="235.953125"></tspan></text><path d="M393.9,151.0C280.1,163.6 165.1,138.4 78.0,151.0" stroke="#000000" fill="none" style="stroke-width: 2; stroke-dasharray: 6, 2; marker-end: url(&quot;#markerArrowBlock&quot;);"></path></g></svg>